# xmcd
#
# Track frame offsets:
#	150
#	14197
#	27921
#	47157
#	62865
#	78184
#	97978
#	113565
#	127956
#	145259
#	159306
#	173030
#	192266
#	207974
#	223293
#	243087
#	258674
#	273065
#
# Disc length: 3871
#
# Revision: 1
# Processed by: cddbd v1.5.1PL0 Copyright (c) Steve Scherf et al.
# Submitted via: kTunes Pro (development) 1.0patch39.5
#
DISCID=fa0f1d12
DTITLE=Various Artist - PHC0510 - Pop Hits Monthly COUNTRY OCT 05
DYEAR=2005
DGENRE=Karaoke
TTITLE0=George Strait - Texas
TTITLE1=Jeff Bates - Good People
TTITLE2=Dierks Bentley - Come A Little Closer
TTITLE3=Terri Clark - She Didn't Have Time
TTITLE4=Cathrine Britt - Elton John - Where We Both Say Goodbye
TTITLE5=Kevin Fowler - Don't Touch My Knife
TTITLE6=Phil Vassar - Good Ole Days
TTITLE7=Aaron Tippin - Come Friday
TTITLE8=Jason Aldean - Hicktown
TTITLE9=George Strait - Texas (duplex)
TTITLE10=Jeff Bates - Good People (duplex)
TTITLE11=Dierks Bently - Come A Little Closer (duplex)
TTITLE12=Terri Clark - She Didn't Have Time (duplex)
TTITLE13=Cathrine Britt - Elton John - Where We Both Say Goodbye (duplex)
TTITLE14=Kevin Fowler - Don't Touch My Knife (duplex)
TTITLE15=Phil Vassar - Good Ole Days (duplex)
TTITLE16=Aaron Tippin - Come Friday (duplex)
TTITLE17=Jason Aldean - Hicktown (duplex)
EXTD=
EXTT0=
EXTT1=
EXTT2=
EXTT3=
EXTT4=
EXTT5=
EXTT6=
EXTT7=
EXTT8=
EXTT9=
EXTT10=
EXTT11=
EXTT12=
EXTT13=
EXTT14=
EXTT15=
EXTT16=
EXTT17=
PLAYORDER=
